<svg width="36" height="36" viewBox="0 0 36 36" fill="none" xmlns="http://www.w3.org/2000/svg">
<path d="M20.0166 25.1333C19.7 25.1333 19.3833 25.0167 19.1333 24.7667L13.25 18.8833C12.7666 18.4 12.7666 17.6 13.25 17.1167L19.1333 11.2333C19.6166 10.75 20.4166 10.75 20.9 11.2333C21.3833 11.7167 21.3833 12.5167 20.9 13L15.9 18L20.9 23C21.3833 23.4833 21.3833 24.2833 20.9 24.7667C20.6666 25.0167 20.35 25.1333 20.0166 25.1333Z" fill="#245CE9"/>
<path d="M17.9167 35.9167C8.03333 35.9167 0 27.8833 0 18C0 8.11668 8.03333 0.0833435 17.9167 0.0833435C27.8 0.0833435 35.8333 8.11668 35.8333 18C35.8333 27.8833 27.8 35.9167 17.9167 35.9167ZM17.9167 2.58334C9.41667 2.58334 2.5 9.50001 2.5 18C2.5 26.5 9.41667 33.4167 17.9167 33.4167C26.4167 33.4167 33.3333 26.5 33.3333 18C33.3333 9.50001 26.4167 2.58334 17.9167 2.58334Z" fill="#245CE9"/>
</svg>
