<svg width="42" height="30" viewBox="0 0 42 30" fill="none" xmlns="http://www.w3.org/2000/svg">
<path d="M41.5385 0L33.0155 17.7353L32.0286 11.7353C33.8229 11.7353 35.4378 12.1471 36.8732 12.9706C38.3087 13.7941 39.4451 14.9118 40.2824 16.3235C41.1198 17.6765 41.5385 19.2059 41.5385 20.9118C41.5385 22.5588 41.1198 24.0882 40.2824 25.5C39.4451 26.8529 38.3087 27.9412 36.8732 28.7647C35.4378 29.5882 33.8229 30 32.0286 30C30.2941 30 28.7091 29.5882 27.2736 28.7647C25.8382 27.9412 24.7018 26.8235 23.8644 25.4118C23.0271 24 22.6084 22.4118 22.6084 20.6471C22.6084 19 22.9972 17.2647 23.7747 15.4412C24.5523 13.5588 25.9279 11.1765 27.9016 8.29412L33.3743 0H41.5385ZM18.9301 0L10.407 17.7353L9.42017 11.7353C11.2743 11.7353 12.8892 12.1471 14.2648 12.9706C15.7003 13.7941 16.8367 14.9118 17.674 16.3235C18.5114 17.6765 18.9301 19.2059 18.9301 20.9118C18.9301 22.5588 18.5114 24.0882 17.674 25.5C16.8367 26.8529 15.7003 27.9412 14.2648 28.7647C12.8294 29.5882 11.2145 30 9.42017 30C7.74547 30 6.16049 29.5882 4.66523 28.7647C3.22977 27.9412 2.09337 26.8235 1.25602 25.4118C0.418674 24 0 22.4118 0 20.6471C0 19 0.388769 17.2647 1.16631 15.4412C1.94384 13.5588 3.31949 11.1765 5.29324 8.29412L10.7659 0H18.9301Z" fill="#DA2128"/>
</svg>
